<?xml version="1.0" standalone="no"?>
<!DOCTYPE svg PUBLIC "-//W3C//DTD SVG 20010904//EN"
 "http://www.w3.org/TR/2001/REC-SVG-20010904/DTD/svg10.dtd">
<svg version="1.0" xmlns="http://www.w3.org/2000/svg"
 width="85.000000pt" height="85.000000pt" viewBox="0 0 85.000000 85.000000"
 preserveAspectRatio="xMidYMid meet">
<metadata>
Created by potrace 1.11, written by Peter Selinger 2001-2013
</metadata>
<g transform="translate(0.000000,85.000000) scale(0.100000,-0.100000)"
fill="#000000" stroke="none">
<path d="M360 834 c-130 -23 -230 -68 -269 -123 -42 -59 -75 -378 -51 -492 21
-100 76 -164 169 -199 67 -26 259 -25 359 1 217 58 252 111 252 390 0 262 -50
389 -163 420 -60 16 -212 18 -297 3z m222 -168 c8 -12 11 -49 8 -106 -3 -65
-21 -114 -55 -146 l-34 -32 29 -45 c15 -25 39 -48 52 -52 41 -13 48 -23 36
-56 -13 -37 -50 -48 -87 -26 -34 20 -100 116 -101 145 0 12 -4 22 -9 22 -5 0
-8 -8 -6 -17 1 -10 0 -22 -3 -28 -4 -5 -7 -19 -8 -30 -6 -75 -32 -138 -63
-155 -28 -14 -38 -13 -61 10 -20 20 -20 20 5 63 13 25 32 74 41 111 16 66 16
67 -3 81 -64 45 -73 251 -12 270 30 10 52 -15 41 -46 -5 -13 -10 -47 -11 -75
-2 -39 1 -53 14 -57 11 -5 20 3 32 28 28 59 66 55 71 -7 3 -41 22 -54 43 -29
12 15 15 37 13 97 -4 85 5 109 40 98 12 -4 24 -12 28 -18z"/>
</g>
</svg>
